<svg xmlns="http://www.w3.org/2000/svg" width="65" height="66" viewBox="0 0 65 66" fill="none"><path d="M32.4899 50.3958C31.9502 48.7038 31.4106 47.0129 30.872 45.3209C29.4682 40.9028 28.0644 36.4846 26.6616 32.0665C26.5482 31.7096 26.6699 31.5307 27.0267 31.5299C30.7222 31.5299 34.4177 31.5322 38.1131 31.5242C38.4478 31.5242 38.5942 31.5402 38.4602 31.959C36.529 38.0004 34.6148 44.0465 32.695 50.0914C32.6623 50.1956 32.6184 50.2951 32.5801 50.3969C32.5496 50.3969 32.5203 50.3958 32.4899 50.3946V50.3958Z" fill="#FBF6F2"></path><path d="M48.8457 31.5666C44.0483 37.512 39.2971 43.3979 34.5381 49.2952C34.4333 49.1625 34.4941 49.0721 34.5223 48.9852C36.334 43.2778 38.1479 37.5715 39.9574 31.864C40.0227 31.6569 40.0836 31.5219 40.3461 31.5231C43.1008 31.5334 45.8544 31.53 48.6091 31.5311C48.662 31.5311 48.715 31.546 48.8457 31.5666Z" fill="#FBF6F2"></path><path d="M16.2736 31.6089C16.4155 31.4979 16.5316 31.5311 16.6386 31.5311C19.3077 31.5288 21.9779 31.5345 24.647 31.522C24.9422 31.5208 25.0526 31.6226 25.1394 31.8983C26.9263 37.552 28.7244 43.2034 30.517 48.8559C30.5575 48.9829 30.6556 49.1076 30.5575 49.309C25.7906 43.4025 21.0394 37.5154 16.2725 31.6089H16.2736Z" fill="#FBF6F2"></path><path d="M38.0836 30.0759H27.0523C27.0489 29.9238 27.1492 29.8528 27.2146 29.7682C28.9147 27.5362 30.6182 25.3077 32.315 23.0723C32.4761 22.8595 32.5584 22.7886 32.7578 23.0517C34.4748 25.3237 36.2065 27.5854 37.9337 29.8506C37.9754 29.9055 38.0103 29.965 38.0847 30.0759H38.0836Z" fill="#FBF6F2"></path><path d="M23.3569 23.1982C23.5112 23.9921 23.678 24.8375 23.8402 25.6841C24.0915 26.9974 24.3348 28.313 24.594 29.6252C24.6593 29.9569 24.6649 30.116 24.2278 30.1114C21.7852 30.0862 19.3414 30.0988 16.8976 30.0988H16.5811C18.831 27.8074 21.0911 25.5045 23.3557 23.1982H23.3569Z" fill="#FBF6F2"></path><path d="M48.5169 30.0988C45.9222 30.0988 43.2959 30.0954 40.6696 30.1022C40.2753 30.1022 40.4612 29.8368 40.4882 29.695C40.824 27.8749 41.1744 26.0582 41.5225 24.2404C41.5924 23.8777 41.6645 23.5162 41.7298 23.1844C43.9922 25.4896 46.2534 27.7925 48.518 30.0999L48.5169 30.0988Z" fill="#FBF6F2"></path><path d="M25.9248 29.1207C25.5045 26.9173 25.1102 24.8318 24.7046 22.7486C24.6426 22.4294 24.6787 22.307 25.0494 22.3104C27.03 22.3299 29.0119 22.3196 31.112 22.3196C29.369 24.6053 27.6779 26.8224 25.9259 29.1207H25.9248Z" fill="#FBF6F2"></path><path d="M33.9713 22.3207C36.1188 22.3207 38.1547 22.3241 40.1894 22.3173C40.5365 22.3161 40.4058 22.5392 40.3776 22.6925C40.1444 23.9532 39.901 25.2116 39.6622 26.47C39.501 27.3177 39.3399 28.1654 39.1585 29.1184C37.4122 26.8304 35.7244 24.6179 33.9702 22.3207H33.9713Z" fill="#FBF6F2"></path><path d="M38.9572 18.0238C38.7442 18.0067 38.5279 17.8682 38.413 17.5937C38.2981 17.3191 38.3386 17.0548 38.5414 16.8409C38.911 16.4497 39.2918 16.0699 39.6692 15.6866C40.2449 15.1009 40.8184 14.514 41.3975 13.9328C41.784 13.545 42.1997 13.513 42.5039 13.8368C42.7912 14.1433 42.7563 14.5621 42.3946 14.9316C41.4741 15.8731 40.548 16.8077 39.6253 17.747C39.4608 17.914 39.2794 18.0375 38.956 18.025L38.9572 18.0238Z" fill="#FBF6F2"></path><path d="M26.7236 17.4083C26.7202 17.5891 26.5918 17.811 26.3281 17.9449C26.0431 18.0902 25.7727 18.0398 25.5496 17.8259C25.1519 17.4438 24.7711 17.0434 24.3835 16.651C23.8168 16.0767 23.2489 15.5036 22.6856 14.9258C22.3194 14.5506 22.28 14.1445 22.5707 13.8333C22.8771 13.5038 23.2895 13.5313 23.6771 13.9226C24.5942 14.8469 25.5057 15.777 26.4205 16.7036C26.5828 16.8684 26.7225 17.0434 26.7225 17.4095L26.7236 17.4083Z" fill="#FBF6F2"></path><path d="M33.2379 15.0391C33.2379 15.7232 33.2446 16.4062 33.2356 17.0903C33.2288 17.5868 32.9596 17.8728 32.5348 17.8694C32.1101 17.8648 31.852 17.5811 31.8498 17.0754C31.843 15.7221 31.843 14.3687 31.8498 13.0165C31.852 12.5189 32.1179 12.218 32.5292 12.21C32.9539 12.202 33.2311 12.5143 33.2367 13.0325C33.2435 13.7018 33.239 14.371 33.2379 15.0414V15.0391Z" fill="#FBF6F2"></path></svg>