<?xml version="1.0" encoding="UTF-8"?>
<svg xmlns="http://www.w3.org/2000/svg" width="70" height="62" viewBox="0 0 70 62" fill="none">
  <path d="M57.6169 35.9847C57.2553 35.9266 56.8907 35.8794 56.5468 35.7407C55.1203 35.1655 54.2171 34.1289 53.967 32.5698C53.6384 30.5214 54.997 28.5372 56.9857 28.0976C58.1514 27.8403 59.2693 27.9626 60.2763 28.6311C61.612 29.5175 62.2627 30.8054 62.0768 32.4287C61.8863 34.0986 60.9011 35.1734 59.3867 35.7631C59.0705 35.886 58.7354 35.9308 58.4033 35.9841H57.6169V35.9847ZM58.0104 33.7662C58.7632 33.7662 59.2746 33.366 59.4687 32.6152C59.5448 32.3203 59.5549 32.0206 59.533 31.7142C59.477 30.9422 58.975 30.1109 57.8777 30.1926C57.3397 30.2326 56.9438 30.4863 56.6943 30.9695C56.4783 31.3872 56.4465 31.8383 56.4937 32.3027C56.5775 33.1238 57.0877 33.7916 58.0104 33.7662Z" fill="#FFFBF8"></path>
  <path d="M5.40234 28.2227C6.15333 28.2215 6.90432 28.2227 7.65531 28.2179C7.75265 28.2173 7.77212 28.2524 7.77094 28.3426C7.76681 28.7392 7.76917 29.1364 7.76917 29.533C7.76917 29.582 7.76917 29.6311 7.76917 29.6807C7.7786 29.6825 7.78804 29.685 7.79748 29.6868C7.89187 29.5451 7.9839 29.4022 8.08183 29.2629C8.58328 28.5503 9.25108 28.1222 10.1112 28.0102C10.707 27.9327 11.2875 27.9854 11.8456 28.2082C12.6391 28.5255 13.0668 29.1461 13.206 29.9901C13.2798 30.4376 13.298 30.8893 13.2975 31.3422C13.2963 32.7384 13.2957 34.1353 13.2998 35.5316C13.2998 35.6648 13.2774 35.7144 13.1317 35.7132C12.376 35.7047 11.6197 35.7065 10.864 35.712C10.743 35.7132 10.7147 35.6763 10.7153 35.557C10.7194 34.2945 10.7212 33.0321 10.7153 31.7697C10.7135 31.4415 10.697 31.1127 10.6038 30.793C10.451 30.2668 10.0988 29.9907 9.56257 29.9823C8.7284 29.9689 8.24878 30.3867 8.06472 31.278C7.97446 31.714 7.95205 32.156 7.94792 32.598C7.93848 33.5819 7.94261 34.5664 7.94792 35.5509C7.94851 35.6787 7.91842 35.7138 7.79158 35.7126C6.99517 35.7059 6.19876 35.7084 5.40234 35.7078V28.2227Z" fill="#FFFBF8"></path>
  <path d="M41.9781 35.9849C41.6306 35.934 41.279 35.9037 40.9404 35.7984C39.577 35.3739 38.632 34.5105 38.3116 33.0591C38.0296 31.7816 38.2013 30.5694 39.0231 29.5158C39.6862 28.6651 40.5546 28.1783 41.6129 28.0275C42.3881 27.9173 43.1426 27.9809 43.8682 28.2661C44.9461 28.6899 45.6198 29.5098 45.9696 30.6196C46.1436 31.1718 46.205 31.7422 46.2138 32.3211C46.2162 32.4561 46.1837 32.4918 46.0486 32.4918C44.3195 32.4864 42.5899 32.4882 40.8607 32.4882C40.7062 32.4882 40.634 32.5663 40.6442 32.7225C40.6731 33.1681 40.8082 33.5665 41.1315 33.8838C41.3663 34.1139 41.653 34.2374 41.9681 34.2732C42.3391 34.3155 42.7108 34.3034 43.0689 34.1636C43.3916 34.0376 43.6482 33.8318 43.8193 33.5254C43.8718 33.4309 43.916 33.4085 44.0187 33.4521C44.5797 33.6901 45.1431 33.9226 45.7083 34.1496C45.8156 34.1926 45.8298 34.2314 45.7785 34.3355C45.4239 35.0567 44.8316 35.4793 44.1072 35.736C43.7591 35.8595 43.3998 35.9328 43.0323 35.9606C42.9928 35.9637 42.9509 35.957 42.9167 35.9861H41.9787L41.9781 35.9849ZM42.1704 31.0029C42.6241 31.0029 43.0777 31.0005 43.5314 31.0047C43.6364 31.0059 43.6683 30.986 43.6476 30.8661C43.411 29.4843 41.9451 29.319 41.2483 29.8973C40.9516 30.1437 40.8177 30.4822 40.7209 30.8449C40.6891 30.9636 40.7044 31.0084 40.8395 31.0065C41.2831 30.9987 41.7268 31.0035 42.1704 31.0035V31.0029Z" fill="#FFFBF8"></path>
  <path d="M27.0361 29.467C27.193 29.2999 27.308 29.1158 27.4461 28.9493C28.0903 28.1712 28.9197 27.8988 29.8896 28.0011C30.1202 28.0253 30.3485 28.0623 30.5686 28.1392C31.1007 28.3263 31.4859 28.6817 31.7219 29.2042C31.7449 29.2551 31.7679 29.3065 31.798 29.3713C31.9484 29.1527 32.0983 28.9487 32.2776 28.7683C32.7177 28.3238 33.2528 28.0937 33.8587 28.0066C34.379 27.9315 34.8875 27.9781 35.3713 28.1767C36.1742 28.5067 36.5895 29.1521 36.7122 30.0089C36.77 30.4122 36.7759 30.8197 36.7753 31.2271C36.7735 32.6652 36.7729 34.1038 36.7777 35.5419C36.7777 35.6751 36.7505 35.7138 36.6142 35.7126C35.868 35.7047 35.1217 35.7047 34.376 35.7126C34.2362 35.7144 34.2132 35.669 34.2132 35.5394C34.2168 34.1783 34.2144 32.8178 34.2114 31.4566C34.2109 31.1369 34.1843 30.819 34.0846 30.5121C33.969 30.1579 33.7295 29.9653 33.369 29.9181C33.1867 29.8939 33.0062 29.8987 32.828 29.9369C32.385 30.0301 32.1343 30.3256 32.0263 30.7609C31.8954 31.2883 31.8712 31.8272 31.8718 32.3679C31.8718 33.4245 31.8688 34.4816 31.8759 35.5382C31.8771 35.6866 31.8305 35.7132 31.6989 35.712C30.9827 35.7059 30.2671 35.7029 29.5509 35.7138C29.3893 35.7162 29.3651 35.6636 29.3657 35.5152C29.3687 34.0717 29.3669 32.6289 29.3598 31.1854C29.3586 30.9492 29.315 30.7161 29.2418 30.4903C29.1492 30.2051 28.964 30.0234 28.6755 29.9453C28.1634 29.8067 27.6142 29.9714 27.357 30.3552C27.1871 30.6083 27.1352 30.9032 27.0933 31.1993C27.0148 31.7612 27.013 32.3273 27.0083 32.8928C27.0012 33.7793 27.0036 34.6663 27.0095 35.5528C27.0107 35.6847 26.9729 35.7126 26.8496 35.712C26.1187 35.7059 25.3878 35.7065 24.6563 35.712C24.5465 35.7126 24.5117 35.6878 24.5117 35.5685C24.5153 33.1665 24.5153 30.7639 24.5117 28.362C24.5117 28.2445 24.5436 28.2167 24.6551 28.2173C25.4013 28.2221 26.1476 28.2221 26.8939 28.2173C27.0036 28.2167 27.042 28.2409 27.0384 28.3608C27.0296 28.6799 27.0355 29.0002 27.0355 29.3193C27.0355 29.3683 27.0355 29.4173 27.0355 29.4664L27.0361 29.467Z" fill="#FFFBF8"></path>
  <path d="M50.1673 29.8947C50.2576 29.7191 50.339 29.5387 50.4387 29.3691C50.9514 28.4991 51.713 28.0704 52.7011 28.0528C52.8775 28.0498 53.0539 28.0498 53.2303 28.0552C53.3441 28.0589 53.3884 28.1 53.3707 28.2405C53.3028 28.7806 53.2551 29.3237 53.1996 29.8663C53.1825 30.0297 53.1524 30.1932 53.1483 30.3567C53.1453 30.4887 53.0852 30.4681 53.0032 30.4457C52.5684 30.3295 52.1283 30.298 51.6882 30.4021C50.9514 30.5765 50.4546 31.1547 50.326 31.9709C50.2877 32.2149 50.2682 32.4602 50.2688 32.7078C50.2706 33.656 50.267 34.6042 50.2729 35.5524C50.2735 35.6832 50.2375 35.7128 50.1137 35.7122C49.3627 35.7062 48.6117 35.705 47.8607 35.7128C47.7221 35.7141 47.6967 35.6705 47.6973 35.5391C47.7014 33.1528 47.7008 30.7672 47.6973 28.381C47.6973 28.2557 47.7244 28.2151 47.8536 28.2163C48.5692 28.223 49.2848 28.223 50.001 28.2163C50.1266 28.2151 50.1473 28.2587 50.1461 28.3731C50.1408 28.8781 50.1437 29.3825 50.1437 29.8874C50.1514 29.8899 50.1597 29.8923 50.1673 29.8947Z" fill="#FFFBF8"></path>
  <path d="M15.8077 28.3443C16.1203 28.3443 16.433 28.3467 16.7451 28.3425C16.83 28.3413 16.866 28.3546 16.8695 28.4576C16.8961 29.2756 17.2831 29.8689 17.9969 30.2147C18.7225 30.5665 19.4316 30.4799 20.0753 29.9937C20.5584 29.6286 20.8215 29.1242 20.841 28.503C20.8445 28.3813 20.8693 28.3383 20.9991 28.3401C21.6038 28.348 22.2091 28.348 22.8137 28.3401C22.9429 28.3383 22.9742 28.377 22.9689 28.5036C22.9093 29.8859 22.281 30.9328 21.159 31.6733C19.4883 32.7765 17.1922 32.5101 15.8053 31.0533C15.1298 30.3436 14.7664 29.4893 14.7481 28.489C14.7458 28.3607 14.7883 28.3371 14.9009 28.3401C15.203 28.3474 15.5056 28.3425 15.8083 28.3425L15.8077 28.3443Z" fill="#FFFBF8"></path>
  <path d="M63.9933 30.7358C62.9403 30.7527 62.404 29.8548 62.6683 28.9115C62.863 28.2176 63.4984 27.9433 64.1078 27.9893C64.7897 28.0408 65.2381 28.4265 65.3584 29.0235C65.5543 29.9965 64.9638 30.7382 63.9939 30.7358H63.9933ZM62.9108 29.3595C62.9084 30.028 63.3438 30.4688 64.004 30.4657C64.6564 30.4627 65.0883 30.0225 65.0865 29.3625C65.0853 28.7038 64.6499 28.2636 63.9992 28.263C63.345 28.263 62.9132 28.6977 62.9108 29.3595Z" fill="#FFFBF8"></path>
  <path d="M64.3885 29.4059C64.526 29.513 64.6269 29.8588 64.5673 30.0138C64.5525 30.0519 64.5219 30.0453 64.4935 30.0489C64.2357 30.0798 64.2175 30.0646 64.2186 29.7976C64.2192 29.6638 64.208 29.5488 64.0434 29.5282C63.8381 29.5021 63.8216 29.5149 63.8216 29.7268C63.8216 29.7728 63.8157 29.8206 63.8228 29.8654C63.8458 30.0114 63.7968 30.0598 63.6464 30.055C63.5178 30.0507 63.4741 30.0259 63.4789 29.8848C63.4901 29.5354 63.4889 29.1849 63.4789 28.8355C63.4753 28.7023 63.5178 28.669 63.6399 28.6769C63.8051 28.6872 63.972 28.6769 64.1378 28.6799C64.3632 28.6835 64.5012 28.7719 64.5561 28.9415C64.6163 29.1261 64.5691 29.2557 64.388 29.4059H64.3885ZM63.9744 29.2702C63.9933 29.2702 64.0033 29.2702 64.0128 29.2702C64.1042 29.2684 64.198 29.2678 64.2293 29.1528C64.2475 29.0838 64.2399 29.0111 64.175 28.9772C64.0694 28.9227 63.9378 28.9094 63.8458 28.9681C63.7791 29.0111 63.8116 29.1413 63.8293 29.2266C63.8452 29.306 63.9307 29.2551 63.9744 29.2702Z" fill="#FFFBF8"></path>
  <path d="M22.4209 33.5039H15.3027V35.7127H22.4209V33.5039Z" fill="#FFFBF8"></path>
</svg>
