<svg xmlns="http://www.w3.org/2000/svg" width="59" height="59" viewBox="0 0 59 59" fill="none"><path d="M43.1257 18.042C43.1339 17.1176 42.5641 16.549 41.6283 16.479C39.2399 16.3015 36.9312 15.7748 34.7056 14.8844C32.775 14.1119 30.9968 13.0718 29.3181 11.8519C28.6062 11.3351 28.0479 11.3427 27.3301 11.8448C26.9209 12.1305 26.515 12.419 26.0998 12.6943C22.7253 14.9254 19.0165 16.1797 14.9843 16.4801C14.0764 16.5479 13.5148 17.1247 13.5121 18.0305C13.5066 19.2263 13.511 20.4233 13.511 21.9688C13.4787 23.6164 13.541 25.6044 13.8677 27.5809C14.792 33.1722 17.2028 38.0222 21.0668 42.1621C22.7876 44.0047 24.8193 45.4732 26.8133 46.9875C27.772 47.7157 28.8471 47.7146 29.8163 46.9957C30.4265 46.5439 31.0203 46.0681 31.6322 45.6174C34.1533 43.7643 36.3434 41.5863 38.1353 39.0159C41.0809 34.7876 42.7236 30.0993 43.0596 24.9575C43.2109 22.6544 43.1033 20.3473 43.1251 18.042H43.1257ZM40.6766 25.6688C40.2249 29.9398 38.8007 33.8518 36.3751 37.3956C36.0233 37.9091 35.6414 38.4024 35.2607 38.8952C34.9777 39.2612 34.6417 39.3251 34.3675 39.0902C34.1003 38.8619 34.1003 38.5581 34.386 38.2003C36.6493 35.3607 38.2074 32.1779 39.041 28.6429C39.4803 26.78 39.6971 24.8914 39.69 22.9767C39.6857 21.9917 39.6868 21.0067 39.6911 20.0212C39.6922 19.83 39.6851 19.6967 39.43 19.6749C35.7611 19.3651 32.4751 17.9502 29.3175 16.1644C29.1902 16.0922 29.0493 15.9234 28.9291 15.9868C28.7789 16.066 28.8624 16.2791 28.8624 16.4315C28.8592 25.2198 28.8592 34.0086 28.8592 42.7969V43.3022C29.8381 42.574 30.7428 41.8987 31.5857 41.1432C31.8643 40.893 32.1337 40.6341 32.4079 40.3795C32.7493 40.0621 33.0766 40.032 33.3197 40.2959C33.5661 40.563 33.5169 40.8646 33.1694 41.2028C32.3473 42.0053 31.4683 42.7411 30.5521 43.4327C30.0648 43.8009 29.5857 44.179 29.0924 44.539C28.5969 44.9001 28.0719 44.9208 27.5983 44.5767C25.211 42.8444 22.9559 40.97 21.1422 38.6089C18.3479 34.9712 16.6423 30.887 16.0414 26.3402C16.001 26.0316 15.9611 25.7224 15.93 25.4126C15.8945 25.0471 16.0917 24.7718 16.4113 24.7248C16.7232 24.6789 16.998 24.898 17.0362 25.2706C17.2438 27.2848 17.6552 29.2547 18.3364 31.1646C19.9562 35.6999 22.6991 39.4158 26.5134 42.3478C26.8952 42.6412 27.2815 42.9291 27.7114 43.2546V15.9426C27.5186 16.0529 27.3503 16.1491 27.1815 16.2452C24.7303 17.629 22.1791 18.7609 19.4137 19.3602C18.6948 19.5159 17.9677 19.6213 17.234 19.6732C17.0056 19.6902 16.9417 19.7776 16.945 19.9966C16.9554 20.8188 16.951 21.6421 16.9483 22.4648C16.9461 22.9084 16.7439 23.1537 16.39 23.1548C16.0354 23.1569 15.8294 22.9117 15.8284 22.4713C15.8251 21.5853 15.8213 20.7003 15.8295 19.8158C15.8355 19.1679 16.2883 18.6254 16.904 18.5823C19.8939 18.3747 22.6265 17.3383 25.2689 16.0081C26.0037 15.6388 26.7319 15.2537 27.4131 14.7942C28.0446 14.3698 28.6101 14.4091 29.2476 14.8046C31.3388 16.1026 33.5508 17.1504 35.9124 17.8661C37.1323 18.2365 38.3751 18.4796 39.648 18.5724C40.3084 18.6216 40.8083 19.1149 40.8039 19.7661C40.7925 21.7344 40.8831 23.7043 40.6756 25.6694L40.6766 25.6688Z" fill="#FBF6F2"></path><path d="M44.9699 17.3214C44.9666 15.9043 43.8221 14.8117 42.3651 14.7063C38.5941 14.4359 35.1032 13.2952 31.8735 11.3264C30.8465 10.7003 29.9735 9.8164 28.7815 9.46458H27.8424C27.1486 9.64814 26.5892 10.0732 26.0161 10.478C22.4652 12.9909 18.5226 14.4097 14.1795 14.7145C12.7417 14.8156 11.6595 15.9595 11.6458 17.3995C11.6333 18.8084 11.6529 20.2162 11.6404 21.6246C11.6218 23.6344 11.6955 25.6371 12.0222 27.6257C13.0645 33.9796 15.8518 39.4437 20.3472 44.0484C21.7747 45.5103 23.4152 46.7127 25.017 47.9637C25.8599 48.622 26.6854 49.295 27.7637 49.5354H28.8596C29.655 49.3393 30.3581 48.9667 30.9924 48.4494C31.5277 48.0134 32.0631 47.5748 32.6236 47.1721C35.3491 45.2093 37.6588 42.8373 39.5736 40.0867C42.7836 35.4765 44.5585 30.3571 44.9109 24.751C45.0666 22.2769 44.9748 19.7972 44.9693 17.3214H44.9699ZM44.1838 24.9597C43.8467 30.3184 42.1499 35.2099 39.0819 39.6169C37.2518 42.2456 35.0448 44.5128 32.44 46.3882C31.9047 46.7733 31.3933 47.1929 30.8809 47.6092C30.2745 48.1036 29.6026 48.4598 28.8427 48.6477H27.7949C26.7651 48.4182 25.9763 47.7752 25.1705 47.1448C23.6398 45.949 22.0724 44.8012 20.7072 43.4038C16.4112 39.0023 13.7469 33.7808 12.7504 27.7071C12.4385 25.8059 12.3675 23.8928 12.385 21.972C12.3975 20.626 12.3779 19.2799 12.391 17.9349C12.4035 16.5582 13.4377 15.464 14.8121 15.3679C18.9635 15.0767 22.7302 13.7202 26.1249 11.3193C26.6717 10.9319 27.206 10.526 27.8697 10.3507H28.7673C29.9069 10.6866 30.7405 11.5307 31.7228 12.13C34.8093 14.0114 38.1456 15.1018 41.75 15.3608C43.1431 15.4607 44.2357 16.5047 44.2389 17.8601C44.245 20.2266 44.3318 22.5954 44.1838 24.9603V24.9597Z" fill="#FBF6F2"></path></svg>