<svg xmlns="http://www.w3.org/2000/svg" width="66" height="66" viewBox="0 0 66 66" fill="none"><path d="M46.2887 28.5452C46.2692 28.9113 46.0816 29.1047 45.8848 29.2968C44.0373 31.1021 42.1954 32.913 40.3387 34.7091C40.1053 34.9345 40.0412 35.1393 40.0984 35.4562C40.5526 37.9959 40.9885 40.539 41.4312 43.0798C41.4861 43.3967 41.5433 43.7205 41.223 43.931C40.9141 44.1346 40.6132 44.0522 40.2986 43.8864C38.0049 42.676 35.7009 41.4839 33.4094 40.2679C33.1337 40.1214 32.9335 40.1352 32.6693 40.2793C30.427 41.4954 28.1768 42.6977 25.9288 43.9047C25.8533 43.9447 25.7778 43.9859 25.7034 44.0271C25.4254 44.1804 25.1531 44.1621 24.8969 43.9859C24.6303 43.8028 24.5754 43.5466 24.6303 43.2331C24.9976 41.1407 25.3556 39.0484 25.716 36.9548C25.7938 36.5052 25.8293 36.043 25.9574 35.6095C26.0924 35.1553 25.9334 34.8807 25.6142 34.5741C23.7643 32.7918 21.9373 30.9865 20.0944 29.1962C19.8564 28.9651 19.7271 28.7306 19.8392 28.4011C19.9468 28.0842 20.2065 27.9858 20.5005 27.9423C23.0539 27.5671 25.605 27.1862 28.1607 26.8246C28.5611 26.7674 28.7957 26.6187 28.981 26.2321C30.0575 23.9829 31.1683 21.7498 32.2689 19.5122C32.3375 19.3714 32.4016 19.2262 32.4885 19.0969C32.7505 18.7079 33.1681 18.677 33.5044 19.0088C33.6405 19.1426 33.7172 19.3108 33.7984 19.4767C34.9218 21.767 36.0498 24.055 37.1606 26.351C37.2933 26.6256 37.4558 26.7457 37.7578 26.7892C40.3547 27.1621 42.9482 27.5511 45.5428 27.9378C46.037 28.0121 46.2932 28.2524 46.2875 28.5429L46.2887 28.5452Z" fill="#FBF6F2"></path><path d="M51.6713 26.2584C51.8532 25.6131 52.018 25.0686 52.3143 24.5767C52.5762 24.142 52.9092 23.7782 53.3416 23.507C53.4995 23.4075 53.607 23.3709 53.6848 23.6043C54.1538 25.0068 54.219 26.4014 53.5887 27.7719C53.3347 28.3256 52.9469 28.782 52.4104 29.0944C52.3085 29.1538 52.2182 29.203 52.2296 29.3483C52.2834 30.0553 52.3303 30.7635 52.3841 31.5345C52.6506 31.1764 52.8634 30.8607 53.1071 30.569C53.5269 30.0668 54.0394 29.6904 54.6858 29.5222C54.8311 29.4845 54.9569 29.4398 54.9672 29.6812C55.0221 30.9339 54.8231 32.1271 54.1515 33.2082C53.7397 33.8717 53.1666 34.3465 52.4241 34.6062C52.3074 34.6474 52.1575 34.6394 52.1415 34.8144C52.0797 35.5065 51.9299 36.1861 51.7789 36.9388C52.2216 36.5773 52.59 36.2444 53.0213 35.9927C53.4194 35.7605 53.8381 35.5912 54.2934 35.5122C54.4444 35.4859 54.5645 35.4996 54.5153 35.6976C54.1081 37.2992 53.3942 38.688 51.8464 39.4796C51.6347 39.5872 51.3865 39.6707 51.1531 39.6764C50.6841 39.6879 50.4644 39.9189 50.3134 40.3411C50.1487 40.801 49.9027 41.2323 49.6533 41.7562C50.2059 41.4942 50.6761 41.2643 51.1966 41.1751C51.6256 41.1018 52.0477 41.1099 52.4676 41.2323C52.6403 41.2826 52.6964 41.3615 52.598 41.54C51.724 43.129 50.5983 44.3909 48.6523 44.5945C48.6237 44.5979 48.5928 44.6094 48.5676 44.6025C47.8607 44.3966 47.4808 44.8244 47.117 45.3255C46.91 45.6104 46.6503 45.8552 46.3391 46.2018C46.5874 46.1744 46.7441 46.1606 46.8997 46.14C47.6101 46.044 48.2908 46.1137 48.9303 46.4672C49.1648 46.5965 49.1946 46.704 48.9875 46.9054C47.9522 47.9167 46.7681 48.6351 45.3175 48.8719C44.781 48.96 44.2605 48.904 43.764 48.7061C43.5191 48.6088 43.351 48.6306 43.1508 48.7953C42.9437 48.9669 42.7115 49.1156 42.4712 49.2392C41.9461 49.5091 41.3295 49.3089 41.0756 48.809C40.8193 48.3034 41.0081 47.6845 41.5068 47.3996C41.5812 47.3573 41.6601 47.3252 41.7379 47.2886C42.1486 47.093 42.366 46.8413 42.3568 46.3139C42.3305 44.8187 42.9998 43.5672 43.8967 42.4163C44.0488 42.2207 44.1472 42.255 44.2971 42.4049C44.8039 42.914 44.9697 43.5466 44.9903 44.2364C44.9938 44.3634 44.9903 44.4892 44.9903 44.7272C45.4479 44.2421 45.8506 43.8154 46.2522 43.3887C46.362 43.272 46.251 43.1748 46.2156 43.0775C45.6745 41.6018 45.8666 40.1649 46.4306 38.7429C46.529 38.4958 46.6617 38.5564 46.8265 38.6525C47.4397 39.0129 47.7851 39.5712 47.9911 40.2313C48.0334 40.3663 48.0654 40.5035 48.1192 40.7072C48.4853 40.2072 48.6992 39.6913 48.9417 39.1914C49.0081 39.0552 48.9051 38.9854 48.8331 38.8985C47.8 37.655 47.6627 36.1895 47.792 34.6599C47.8126 34.414 47.9602 34.4071 48.1524 34.4494C48.8365 34.6016 49.317 35.0237 49.6865 35.5946C49.7929 35.7593 49.8844 35.9344 50.032 36.1883C50.1693 35.55 50.2882 34.9917 50.4084 34.4346C50.4381 34.2984 50.3672 34.2355 50.2619 34.1634C48.8914 33.2368 48.3663 31.8343 48.0837 30.2921C48.0391 30.0496 48.1146 29.9947 48.3377 29.997C49.0607 30.0027 49.667 30.2818 50.1898 30.7623C50.3443 30.9042 50.4804 31.0666 50.6669 31.2645C50.7413 30.5919 50.6314 29.9798 50.5788 29.3666C50.5639 29.1927 50.3832 29.2213 50.2734 29.1847C48.7004 28.6711 47.7851 27.4962 47.1102 26.0707C46.9935 25.8236 47.1445 25.7756 47.3218 25.731C48.1032 25.5308 48.8182 25.7092 49.4909 26.1165C49.6476 26.2115 49.7952 26.3213 49.9931 26.4574C49.8398 25.7847 49.6327 25.1841 49.4142 24.5858C49.3547 24.4234 49.2472 24.4257 49.1133 24.4211C47.3825 24.3627 46.1778 23.3846 45.1219 22.1422C44.956 21.9478 45.0407 21.8551 45.218 21.7521C45.9204 21.3403 46.656 21.3449 47.4088 21.5634C47.5975 21.6183 47.7783 21.7006 48.0574 21.807C47.7028 21.1389 47.3035 20.6024 46.8974 20.0693C46.807 19.9515 46.7064 19.9995 46.5908 20.027C44.8096 20.4457 43.2892 19.8085 41.8478 18.8486C41.6315 18.7045 41.7482 18.5981 41.8615 18.4814C42.485 17.8385 43.2663 17.6497 44.1289 17.7046C44.2971 17.7149 44.4641 17.747 44.7032 17.7778C44.4218 17.4015 44.09 17.1807 43.788 16.9359C43.1336 16.405 42.4381 15.9326 41.7185 15.4944C41.2472 15.2073 41.1167 14.8332 41.3387 14.4671C41.5663 14.0919 42.0194 13.9992 42.4598 14.2555C43.5352 14.8824 44.5316 15.6203 45.464 16.4428C45.5578 16.5252 45.6527 16.6041 45.8106 16.7379C45.5463 15.9166 45.3415 15.1627 45.4445 14.3664C45.4937 13.9809 45.5269 13.4775 45.8529 13.3425C46.0977 13.2407 46.3837 13.6915 46.616 13.9328C47.5563 14.9075 48.2805 15.9966 48.3892 17.3992C48.4315 17.9357 48.3709 18.4551 48.0952 18.9287C48.0242 19.05 47.9922 19.1484 48.0895 19.2765C48.5528 19.8863 49.0081 20.5017 49.5309 21.1996C49.5115 20.5372 49.5137 19.9766 49.6499 19.4298C49.7757 18.923 49.9908 18.4643 50.3603 18.0856C50.4861 17.9575 50.5822 17.8797 50.7172 18.0879C51.5752 19.4138 52.0523 20.8243 51.7171 22.4237C51.6118 22.9236 51.3888 23.3652 51.0353 23.7335C50.914 23.8594 50.8557 23.9612 50.938 24.1397C51.2378 24.7872 51.4368 25.4713 51.6679 26.2584H51.6713Z" fill="#FBF6F2"></path><path d="M17.8775 22.0908C18.6543 21.7533 19.3476 21.5748 20.0878 21.7636C21.0476 22.0084 21.1013 22.1731 20.4275 22.8893C19.4448 23.9326 18.2882 24.6327 16.8136 24.6831C16.6649 24.6877 16.5722 24.7266 16.5253 24.8718C16.34 25.4507 16.1512 26.0284 15.9316 26.7045C16.2817 26.5009 16.5276 26.3465 16.785 26.2115C17.0905 26.049 17.4234 25.9701 17.7677 25.9369C18.1429 25.9014 18.6108 25.858 18.8225 26.1211C19.0078 26.3522 18.6566 26.7 18.5067 26.9757C17.8558 28.1757 16.9074 29.0429 15.5952 29.473C15.4328 29.5268 15.3539 29.6034 15.3424 29.7659C15.3012 30.3459 15.2601 30.9259 15.2097 31.6238C15.387 31.427 15.4843 31.3149 15.5861 31.2062C16.1261 30.6285 16.7804 30.2944 17.5801 30.2658C17.7769 30.259 17.9222 30.2899 17.881 30.5438C17.6362 32.0699 17.0722 33.4244 15.7771 34.3671C15.5747 34.5147 15.5003 34.6325 15.5472 34.8842C15.6433 35.3967 15.7085 35.9138 15.9304 36.4618C16.3022 35.7033 16.7873 35.1427 17.5206 34.8361C18.0652 34.6085 18.1189 34.6291 18.1784 35.1988C18.3283 36.6437 18.056 37.9799 17.1236 39.1365C17.0493 39.2291 16.9212 39.2989 17.007 39.4636C17.2598 39.9521 17.4668 40.4658 17.8249 40.9852C17.9748 40.3514 18.1704 39.8114 18.5674 39.3721C19.2286 38.6411 19.4414 38.672 19.7217 39.586C20.1106 40.8536 20.217 42.1292 19.7045 43.3967C19.6599 43.5066 19.6256 43.6015 19.7274 43.7068C20.1175 44.1129 20.5019 44.5236 20.9664 45.0166C20.9412 44.3245 20.9984 43.7651 21.2661 43.248C21.702 42.4049 21.8507 42.3877 22.3792 43.1382C23.1709 44.2627 23.6582 45.4891 23.6067 46.8871C23.5987 47.0896 23.6685 47.196 23.8378 47.2909C24.0861 47.4294 24.3309 47.5804 24.5551 47.7531C25.0024 48.0986 25.0813 48.6363 24.7793 49.1271C24.4933 49.5927 23.871 49.8432 23.4511 49.5114C22.7705 48.9726 22.1195 49.0104 21.3096 49.1385C20.09 49.333 19.0044 48.7598 17.9977 48.0997C17.603 47.8412 17.2586 47.5186 16.9086 47.204C16.6523 46.974 16.7267 46.8551 16.9864 46.7166C17.7185 46.3265 18.4896 46.322 19.2778 46.4558C19.3453 46.4672 19.4117 46.4821 19.5466 46.5096C19.0616 45.941 18.62 45.4273 18.1818 44.9103C18.1166 44.8336 18.0423 44.8245 17.953 44.8405C16.5539 45.0967 15.4946 44.4504 14.5439 43.5397C14.036 43.0535 13.6459 42.4747 13.3061 41.858C13.1722 41.6167 13.2523 41.5457 13.4754 41.4862C14.2419 41.2826 14.9741 41.4508 15.7016 41.6784C15.9007 41.7402 16.0952 41.8157 16.3389 41.9027C16.0426 41.2471 15.7668 40.6443 15.498 40.0379C15.45 39.9292 15.3813 39.8949 15.2681 39.8904C13.8335 39.8446 12.9663 38.9511 12.2616 37.8426C11.8921 37.2614 11.6782 36.6116 11.5237 35.939C11.462 35.669 11.5443 35.6221 11.7823 35.6209C12.6632 35.6175 13.3713 36.0145 14.0165 36.5636C14.1458 36.6734 14.2705 36.7867 14.4364 36.9331C14.3151 36.2009 14.2018 35.5225 14.0897 34.8441C14.0714 34.7366 14.0177 34.6657 13.9067 34.6336C12.3989 34.1943 11.7926 33.0011 11.4196 31.6272C11.2663 31.0609 11.2366 30.4763 11.2263 29.8883C11.2194 29.4822 11.3784 29.4513 11.7148 29.5668C12.5739 29.862 13.1471 30.4729 13.6104 31.2154C13.6676 31.3069 13.7271 31.3984 13.8575 31.6032C13.8541 30.76 13.8838 30.0416 13.9708 29.3277C13.9879 29.1836 13.8827 29.1321 13.7854 29.0726C12.8382 28.4846 12.4 27.5786 12.2559 26.5204C12.1255 25.5628 12.241 24.6179 12.5156 23.6867C12.6163 23.3457 12.749 23.4178 12.9583 23.5574C13.6836 24.0436 14.0714 24.7597 14.3448 25.5571C14.4078 25.739 14.4592 25.9255 14.5485 26.2138C14.8082 25.4301 15.0175 24.7426 15.3024 24.0848C15.3447 23.9864 15.3344 23.8983 15.2555 23.8113C14.2396 22.7108 14.2488 21.4169 14.5782 20.0762C14.743 19.4069 15.061 18.8006 15.4145 18.2103C15.5895 17.9174 15.7142 17.9014 15.9304 18.1703C16.4361 18.7983 16.6374 19.527 16.6843 20.3107C16.6992 20.5624 16.6866 20.8152 16.6866 21.1481C17.1625 20.4663 17.5892 19.8531 18.0183 19.2422C18.0869 19.1449 18.0663 19.0626 18.016 18.9653C17.4062 17.7893 17.6842 16.6636 18.2413 15.5722C18.6154 14.8401 19.1554 14.2372 19.7972 13.7166C20.0603 13.5027 20.1633 13.5713 20.2811 13.8448C20.646 14.6936 20.5694 15.5425 20.3223 16.3982C20.28 16.5469 20.2456 16.6979 20.209 16.8478C20.2067 16.8581 20.2205 16.8718 20.2445 16.921C20.9572 16.2964 21.6768 15.6958 22.4616 15.1798C22.8185 14.9453 23.1754 14.7085 23.5484 14.498C23.9602 14.2658 24.4235 14.3939 24.6249 14.7657C24.8148 15.1146 24.6958 15.4921 24.2737 15.7358C23.2555 16.3227 22.3151 17.0125 21.4526 17.8087C21.3942 17.8625 21.3015 17.8923 21.2947 18.0295C21.7203 18.0078 22.139 17.938 22.5622 18.0021C23.1606 18.0925 23.6788 18.327 24.0998 18.7697C24.2348 18.9116 24.2599 19.0145 24.0735 19.1392C22.6286 20.099 21.1036 20.7225 19.3258 20.2878C19.1714 20.2501 19.0913 20.2741 19.0044 20.3919C18.6246 20.9079 18.2539 21.4307 17.8775 22.0908Z" fill="#FBF6F2"></path></svg>